<?xml version="1.0" standalone="no"?><!DOCTYPE svg PUBLIC "-//W3C//DTD SVG 1.1//EN" "http://www.w3.org/Graphics/SVG/1.1/DTD/svg11.dtd"><svg t="1638698194606" class="icon" viewBox="0 0 1024 1024" version="1.1" xmlns="http://www.w3.org/2000/svg" p-id="14745" xmlns:xlink="http://www.w3.org/1999/xlink" width="128" height="128"><defs><style type="text/css"></style></defs><path d="M828.704 196.576c-84.608-84.192-197.056-130.56-316.704-130.56s-232.128 46.368-316.736 130.56C110.624 280.8 64 392.832 64 512c0 119.2 46.624 231.2 131.232 315.424 84.608 84.192 197.088 130.56 316.736 130.56s232.128-46.368 316.704-130.56c84.672-84.256 131.296-196.288 131.264-315.456C959.968 392.8 913.376 280.8 828.704 196.576zM736 544l-192 0 0 192c0 17.696-14.336 32-32 32s-32-14.304-32-32l0-192L288 544c-17.664 0-32-14.336-32-32s14.336-32 32-32l192 0L480 288c0-17.664 14.336-32 32-32s32 14.336 32 32l0 192 192 0c17.696 0 32 14.336 32 32S753.696 544 736 544z" p-id="14746" fill="#3F65B6"></path></svg>